<?xml version="1.0" encoding="utf-8"?>
<!-- Generator: Adobe Illustrator 18.1.1, SVG Export Plug-In . SVG Version: 6.00 Build 0)  -->
<svg version="1.1" id="Layer_1" xmlns="http://www.w3.org/2000/svg" xmlns:xlink="http://www.w3.org/1999/xlink" x="0px" y="0px"
	 viewBox="0 0 1024 768" enable-background="new 0 0 1024 768" xml:space="preserve">
<g>
	<path d="M508,311.3c0.1-1.7-0.4-3.8-0.9-5.4c-3.7-14.1-18.2-22.6-32.4-18.9c-14.1,3.7-22.6,18.2-18.9,32.4c0.4,1.6,1,3.7,1.9,5.1
		c-33.6,12.7-55.6,29.1-53.2,40.3l169-44.4C571.2,309.2,543.5,305.9,508,311.3z M491.6,315c-3.1,0.8-5.8,1.5-8.9,2.3
		c-3.1,0.8-5.8,1.5-8.9,2.3c-0.8-0.9-1.7-2.3-2.1-3.9c-1.4-5.2,1.6-11,7.3-12.6c5.2-1.4,11,1.6,12.6,7.3
		C491.9,311.6,491.7,313.3,491.6,315z"/>
	<path d="M585.3,302.8c-4-3.3-7.9-6.8-10.3-10.9c-7.5-11.4-0.5-22.1,7.5-31.2c0.2,0,0.2,0,0.2,0s0.2-0.2,0.5-0.5
		c0.5-0.5,0.5-0.7,0.7-0.7h0.2v0.2c-1.6,7-1.6,11.4,0.5,15.4c2.6,5.6,7,9.3,11.2,13c3.3,2.8,6.5,5.4,8.9,8.9c4,6.5,5.1,13.7,3.3,21
		c-1.9,7.9-7.7,15.1-14.7,19.1c-0.5,0.5-0.9,0.7-1.4,0.9c-3.7,2.1-7.7,4.4-10.5,8.2h-0.2c-0.2,0-0.2,0-0.2,0c0-0.2,0-0.2,0-0.5
		c1.4-2.6,3.3-4.9,4.9-7.5c2.3-3.3,4.4-6.3,6.3-10c0.9-1.6,1.4-3.3,1.6-5.1c1.2-4,0.9-7.9-0.5-11.4
		C592.3,308.8,588.8,305.8,585.3,302.8"/>
	<path d="M615.5,387.7h-16v-19.9H424.8v19.9h-16.5c-7.6,0-13.5,6-13.5,13.5c0,7.6,6,13.5,13.5,13.5h16v71.5
		c0,12.4,9.7,22.2,22.2,22.2h130.4c12.4,0,22.2-9.7,22.2-22.2v-71.5h16c7.6,0,13.5-6,13.5-13.5C629,393.7,623.1,387.7,615.5,387.7z
		 M467.7,453.6c-1,0-1.8-4.6-1.9-6.1c-0.4-6.2,1.1-12.2,3.2-17.8c0.4-1.2,1-2.3,1.5-3.4c2.1-4.2,4.8-7.9,8.3-11.2
		c4.4-4.2,10-7.5,16.8-9.9c6-2.2,13.1-3.4,21.1-3.6c0,0,0,0,0.1,0v-12.8l27.3,22.5l-27.3,22.5l0-12.8h-1.4
		c-6.2,0.3-11.8,1.1-16.7,2.4c-6,1.6-11,3.9-15.2,6.7c-1.5,1-2.9,2.2-4.1,3.4v0.4l-0.2-0.2c-2,2-3.8,4.1-5.3,6.3
		C468.9,447.2,467.7,453.6,467.7,453.6z M553.3,450.2c-0.4,1.2-1,2.3-1.5,3.4c-2.1,4.2-4.8,7.9-8.3,11.2c-4.4,4.2-10,7.5-16.8,9.9
		c-6,2.2-13.1,3.4-21.1,3.6c0,0,0,0-0.1,0v12.8l-27.3-22.5l27.3-22.5l0,12.8h1.4c6.2-0.3,11.8-1.1,16.7-2.4c6-1.6,11-3.9,15.2-6.7
		c1.5-1,2.9-2.2,4.2-3.4v-0.4l0.2,0.2c2-1.9,3.8-4.1,5.3-6.3c5-7.3,6.2-13.7,6.2-13.7c1,0,1.8,4.6,1.9,6.1
		C557,438.6,555.5,444.6,553.3,450.2z"/>
</g>
</svg>
