<?xml version='1.0' encoding='iso-8859-1'?>
<svg version="1.1" xmlns="http://www.w3.org/2000/svg" viewBox="0 0 470.026 470.026" xmlns:xlink="http://www.w3.org/1999/xlink" enable-background="new 0 0 470.026 470.026">
  <g>
    <path d="m315.642,197.759c8.033,0 15.963-3.124 21.885-9.044 2.929-2.928 2.93-7.677 0.001-10.606-2.927-2.929-7.676-2.93-10.606-0.001-4.758,4.756-12.031,6.006-18.102,3.108-3.737-1.785-8.215-0.203-10,3.535-1.785,3.737-0.202,8.215 3.535,10 4.239,2.024 8.779,3.008 13.287,3.008z"/>
    <path d="m467.829,90.232c-2.929-2.927-7.677-2.929-10.607,0l-82.572,82.571-14.567-14.567 82.572-82.572c2.929-2.93 2.929-7.678 0-10.607-2.93-2.928-7.678-2.928-10.607,0l-82.572,82.572-14.567-14.567 82.572-82.572c2.929-2.93 2.929-7.678 0-10.607-2.93-2.928-7.678-2.928-10.607,0l-82.572,82.572-14.567-14.567 82.571-82.572c2.929-2.93 2.929-7.678 0-10.607-2.93-2.928-7.678-2.928-10.607,0l-87.869,87.87c-0.012,0.012-21.218,21.219-21.218,21.219-16.855,16.854-22.207,41.962-14.118,64.034l-17.093,15.171c-3.098,2.75-3.38,7.49-0.631,10.588 1.482,1.67 3.542,2.521 5.612,2.521 1.771,0 3.548-0.623 4.976-1.891l21.104-18.732c2.5-2.22 3.229-5.825 1.789-8.842-8.366-17.52-4.764-38.514 8.967-52.242l15.909-15.909 45.039,45.038c0.013,0.013 19.877,19.876 19.877,19.876l-15.91,15.91c-13.728,13.729-34.722,17.335-52.242,8.967-3.018-1.441-6.622-0.712-8.842,1.789l-17.195,19.373c-2.749,3.098-2.467,7.838 0.631,10.588 1.428,1.268 3.205,1.891 4.976,1.891 2.069,0 4.13-0.852 5.612-2.521l13.634-15.36c6.793,2.489 13.87,3.705 20.909,3.705 15.832-0.002 31.458-6.157 43.125-17.823l21.206-21.206c0.015-0.016 87.883-87.882 87.883-87.882 2.928-2.931 2.928-7.679-0.001-10.609z"/>
    <path d="m208.703,309.642c-3.097-2.749-7.838-2.467-10.588,0.631l-108.422,122.155c-0.037,0.042-0.074,0.084-0.11,0.127-0.538,0.635-1.056,1.199-1.584,1.727-5.308,5.309-12.364,8.231-19.871,8.231-7.506,0-14.562-2.923-19.87-8.231-10.957-10.956-10.957-28.785 0-39.741 0.527-0.528 1.092-1.046 1.727-1.584 0.043-0.036 0.085-0.073 0.127-0.11l124.446-110.457c3.098-2.75 3.38-7.49 0.631-10.588-2.751-3.099-7.491-3.382-10.588-0.631l-124.388,110.403c-0.923,0.785-1.762,1.558-2.563,2.358-16.805,16.806-16.805,44.15 0,60.956 8.142,8.141 18.965,12.624 30.478,12.624 11.514,0 22.337-4.483 30.479-12.624 0.801-0.802 1.573-1.642 2.359-2.564l108.368-122.094c2.749-3.098 2.467-7.838-0.631-10.588z"/>
    <path d="m407.352,381.575l-217.046-192.647c16.92-32.58 10.996-72.347-15.352-98.695-34.585-34.586-76.136-55.233-111.151-55.233-18.864,0-34.876,6.041-46.307,17.471-16.61,16.611-21.608,42.241-14.073,72.169 7.26,28.832 25.669,59.122 51.835,85.289 15.978,15.978 37.222,24.776 59.818,24.776 13.595,0 26.909-3.244 38.873-9.429l192.651,217.05c0.785,0.923 1.558,1.762 2.357,2.563 8.142,8.141 18.965,12.624 30.478,12.624 11.514,0 22.337-4.483 30.479-12.624 16.805-16.806 16.805-44.15 0-60.956-0.8-0.8-1.639-1.573-2.562-2.358zm-8.045,52.706c-5.308,5.308-12.364,8.231-19.871,8.231-7.506,0-14.563-2.924-19.87-8.231-0.528-0.527-1.046-1.092-1.584-1.727-0.036-0.043-0.073-0.085-0.11-0.127l-196.725-221.64c-1.468-1.653-3.527-2.521-5.613-2.521-1.351,0-2.714,0.364-3.933,1.116-10.951,6.753-23.581,10.322-36.524,10.322-18.59,0-36.067-7.239-49.211-20.384-24.278-24.278-41.288-52.102-47.896-78.345-6.196-24.606-2.597-45.168 10.134-57.898 8.554-8.555 20.899-13.077 35.699-13.077 31.124,0 68.711,19.005 100.544,50.84 22.92,22.919 27.057,58.175 10.062,85.735-1.912,3.101-1.319,7.127 1.405,9.546l221.64,196.725c0.042,0.037 0.084,0.074 0.127,0.11 0.635,0.538 1.199,1.056 1.727,1.584 10.956,10.956 10.956,28.785-0.001,39.741z"/>
    <path d="m143.135,111.444c-2.93,2.929-2.93,7.678-0.001,10.606 13.045,13.046 15.404,33.104 5.739,48.778-2.174,3.525-1.078,8.146 2.447,10.32 1.228,0.757 2.587,1.117 3.93,1.117 2.516,0 4.974-1.266 6.391-3.564 13.33-21.617 10.082-49.274-7.899-67.257-2.929-2.927-7.678-2.928-10.607,1.42109e-14z"/>
    <path d="m115.077,189.704c-10.577,0-20.521-4.118-27.999-11.596-20.502-20.503-34.713-43.395-40.017-64.457-3.363-13.356-2.499-24.606 2.255-29.361 2.929-2.929 2.929-7.678-0.001-10.606-2.93-2.928-7.677-2.929-10.606,0.001-8.85,8.851-11.05,24.346-6.194,43.629 5.956,23.653 21.566,49.01 43.957,71.401 10.312,10.311 24.022,15.989 38.605,15.989 4.143,0 7.5-3.357 7.5-7.5s-3.357-7.5-7.5-7.5z"/>
  </g>
</svg>
